<svg width="580" height="400" xmlns="http://www.w3.org/2000/svg">
 <!-- Created with Method Draw - http://github.com/duopixel/Method-Draw/ -->
 <g>
  <title>background</title>
  <rect fill="#fff" id="canvas_background" height="402" width="582" y="-1" x="-1"/>
  <g display="none" overflow="visible" y="0" x="0" height="100%" width="100%" id="canvasGrid">
   <rect fill="url(#gridpattern)" stroke-width="0" y="0" x="0" height="100%" width="100%"/>
  </g>
 </g>
 <g>
  <title>Layer 1</title>
  <path id="svg_1" d="m95.450089,78.533012c-3.411552,-0.695541 -6.964142,-1.152031 -9.846947,-1.275452l-0.509338,-0.021011c0.117119,-0.309669 0.205887,-0.519569 0.234085,-0.551086c0.062973,-0.060463 0.112778,-0.3228 0.119202,-0.577408c0,-0.14164 0.049889,-0.598289 0.130096,-1.204521c0.782486,0.034065 1.818481,0.062988 2.949951,0.073494c4.365303,0.042023 8.934303,0.46701 12.068489,1.138954c1.866211,0.398918 2.48175,0.383148 1.103241,-0.021011c-1.393707,-0.409401 -5.529205,-1.013069 -8.825867,-1.272873c-2.213097,-0.183655 -5.386223,-0.251907 -7.256813,-0.212448c0.05423,-0.393654 0.117065,-0.829323 0.182083,-1.278191c0.264389,-1.729485 0.353325,-3.469437 0.35981,-6.933533c0.004379,-5.372215 -0.234024,-6.852333 -1.679794,-10.405846c-0.587395,-1.451221 -1.252777,-2.682056 -2.056931,-3.797493c0.702255,-2.508907 0.684952,-6.390339 -0.043388,-9.796856c-0.598236,-2.792355 -0.808441,-2.973423 -2.900032,-2.435463c-1.772995,0.45668 -3.192726,1.081249 -5.013412,2.19136c-0.862671,0.524967 -2.048279,1.343784 -2.910919,1.989281c-2.243301,-0.95787 -4.564629,-1.590374 -7.04213,-1.931507c-2.512058,-0.343807 -8.667728,-0.149551 -10.852482,0.338646c-2.13501,0.477608 -4.059681,1.06284 -5.800175,1.755684c-0.869183,-0.648254 -2.130592,-1.527431 -3.032299,-2.07589c-1.829357,-1.115364 -3.249035,-1.734783 -5.028564,-2.19136c-2.085079,-0.540642 -2.301872,-0.356995 -2.898003,2.435352c-0.739025,3.448536 -0.743408,7.398167 -0.01292,9.899334c0.084492,0.286026 0.136589,0.488106 0.156052,0.645496c-2.960732,4.514019 -3.927475,9.563259 -3.283722,16.6124c0.166939,1.83709 0.424889,3.522011 0.786797,5.067688c-1.890053,-0.015701 -4.577656,0.068283 -6.517622,0.22052c-3.301023,0.262367 -7.438723,0.858162 -8.832376,1.267487c-1.37649,0.406914 -0.765186,0.419945 1.105278,0.023758c3.132027,-0.666679 7.703239,-1.09967 12.068531,-1.139122c0.823643,-0.002571 1.593182,-0.023575 2.254238,-0.044586c0.199329,0.816193 0.42696,1.59314 0.684902,2.333153l-0.019547,0.002594c-2.882755,0.120735 -6.43092,0.579956 -9.844601,1.272728c-2.559868,0.519707 -6.337784,1.559067 -6.777748,1.858192c-0.46376,0.31237 -0.084589,0.244102 1.898804,-0.364838c3.615234,-1.107483 8.316559,-1.957764 14.140541,-2.548264l0.652412,-0.068268c1.248413,3.514076 3.175316,6.198914 5.897621,8.290474c1.664661,1.283325 4.330658,2.60083 5.674545,2.805542c0.370663,0.055092 1.443558,0.322723 2.386318,0.593102c0.947197,0.267632 2.796097,0.669243 4.10955,0.900078l0.030434,0c-0.026054,0.021011 -0.047737,0.034225 -0.071548,0.055237c-1.590965,0.999893 -2.624878,2.558754 -3.32058,5.012527c-0.312103,0.112816 -0.702354,0.267754 -1.122795,0.443542c-1.502029,0.619362 -2.087311,0.745361 -3.610989,0.758446c-1.577896,0.015739 -1.952869,-0.068268 -2.895756,-0.603577c-1.374187,-0.774231 -2.650799,-2.199318 -3.504898,-3.897217c-1.421787,-2.842239 -3.881855,-4.849915 -5.934467,-4.849915c-1.751358,0 -2.085077,0.858116 -0.817116,2.115288c1.909477,1.886948 3.335732,3.813255 3.920856,5.28553c0.329521,0.826637 0.834522,2.102104 1.127186,2.834381c0.309944,0.782028 0.971008,1.842278 1.601757,2.574516c1.482521,1.711067 2.915203,2.529884 5.052395,2.915657c1.430511,0.254585 1.783855,0.254585 3.474464,-0.005249c0.81496,-0.120659 1.501999,-0.262482 2.117558,-0.438293c0,0.839836 0,1.805588 0,2.942017c0,6.075424 -0.058445,8.027924 -0.257954,8.600052c-0.374935,1.086533 -1.215843,2.204643 -2.033016,2.705872c-0.815014,0.503761 -1.068508,1.05751 -0.726105,1.566681c0.1908,0.272995 0.557056,0.322746 1.788177,0.225693c2.334373,-0.175735 3.985924,-1.220337 4.827026,-3.065331c0.268745,-0.590492 0.331558,-1.78196 0.418198,-7.972862c0.088951,-6.718475 0.130074,-7.364059 0.489929,-8.324554c0.218872,-0.572159 0.535339,-1.191513 0.710938,-1.359467c0.2948,-0.293938 0.314278,0.288628 0.314278,8.324593c-0.002174,8.86776 -0.075897,9.93853 -0.808434,11.644432c-0.164825,0.388412 -0.476929,0.894875 -0.695839,1.13633c-0.383568,0.422531 -0.546165,1.506424 -0.279572,1.831833c0.439995,0.530136 2.648727,-0.301804 3.853722,-1.451294c2.050446,-1.968285 2.295456,-3.595406 2.312767,-15.344795l0.008629,-6.894371l0.622086,0.073494l0.621986,0.068314l0.101891,9.014786c0.117065,10.151146 0.132301,10.300728 1.558441,12.2612c0.810692,1.107483 1.625687,1.718948 2.952198,2.196564c1.774986,0.648232 2.310432,-0.349014 1.11615,-2.081055c-1.298363,-1.881706 -1.358948,-2.600883 -1.289711,-13.738831c0.049965,-7.14093 0.049965,-7.14093 0.429276,-6.723648c0.801994,0.879219 0.955811,2.325203 0.955811,9.022629c0,8.316704 0.195183,9.109276 2.620506,10.560616c1.133545,0.669228 1.452209,0.753227 2.904419,0.758423c1.545494,0.007851 1.63858,-0.018402 1.694931,-0.509132c0.049889,-0.393639 -0.140823,-0.663963 -0.862602,-1.196693c-0.945023,-0.703323 -1.601852,-1.606148 -2.013626,-2.739929c-0.156075,-0.438225 -0.262192,-3.298813 -0.333717,-9.193275c-0.101898,-8.230019 -0.123589,-8.605354 -0.548462,-9.893883c-0.570023,-1.734711 -1.441338,-3.104698 -2.546814,-4.012756c-0.288147,-0.225662 -0.574333,-0.414635 -0.947182,-0.556358c0.457436,-0.055153 0.90168,-0.112885 1.33094,-0.188927c4.464943,-0.719086 6.825348,-1.31749 8.721947,-2.204514c4.007629,-1.868576 6.716957,-4.970627 8.18647,-9.371643c0.130096,-0.391129 0.262268,-0.763763 0.372795,-1.062927l1.129211,0.112823c5.828438,0.595749 10.529671,1.446075 14.144989,2.556236c1.983269,0.608772 2.362549,0.682274 1.898689,0.362137c-0.431305,-0.291336 -4.209221,-1.327972 -6.766785,-1.847641zm-17.086212,-0.10759c-0.661156,1.763657 -2.507751,4.025826 -3.999031,4.912956c-1.471756,0.881767 -3.780167,1.550888 -6.391869,1.871155c-1.7882,0.220406 -11.754192,0.285973 -13.399296,0.089165c-5.444683,-0.645576 -8.496502,-1.915779 -10.746357,-4.456276c-2.130638,-2.417 -3.125515,-5.694832 -2.95208,-9.728584c0.11055,-2.524551 0.613323,-4.109673 1.929012,-6.036049c1.196423,-1.75573 2.453571,-2.8396 3.938324,-3.390709c1.239761,-0.45929 5.050194,-0.50119 10.171936,-0.102303c2.264954,0.175835 4.13768,0.175835 6.398422,0c5.357952,-0.409393 8.934368,-0.364883 10.256474,0.131149c2.076416,0.776802 3.96862,2.868523 5.104332,5.655624c0.511604,1.243813 0.611221,1.77401 0.684914,3.697708c0.101898,2.648041 -0.275208,5.461388 -0.994781,7.356163zm-27.01762,-11.371506c-3.047485,-0.645615 -4.7901,5.673996 -2.451458,8.899315c1.111912,1.53006 2.095982,1.781967 3.329304,0.85302c1.142227,-0.863525 1.762108,-2.477463 1.762108,-4.569168c0,-2.78968 -1.048981,-4.839264 -2.639954,-5.183167zm18.503674,0.37793c-3.047371,-0.645531 -4.792259,5.666084 -2.45359,8.896721c1.111931,1.529915 2.095985,1.784508 3.331543,0.850334c1.140038,-0.86084 1.762062,-2.477448 1.762062,-4.569023c0,-2.779327 -1.049065,-4.836906 -2.640015,-5.178032zm-8.199413,12.42643c-0.065079,0.254585 -0.383759,0.632545 -0.704544,0.834625c-0.812744,0.506599 -1.39801,0.33078 -2.256271,-0.61409c-0.531143,-0.582672 -0.771614,-0.889626 -0.93425,-0.280846c-0.149467,0.56427 0.795486,1.69796 1.525917,2.04435c0.669708,0.322861 1.150955,0.333366 1.879189,-0.03405c0.719681,-0.364868 1.35041,-1.346291 1.35041,-1.981323c0,-0.593201 -0.700111,-0.5644 -0.860451,0.031334zm-0.899658,-1.978783c0.461731,-0.495926 0.567924,-1.514153 0.123657,-2.052307s-1.343864,-0.459198 -1.695045,0.147057c-0.409554,0.708595 -0.190666,1.249184 0.101898,1.823929c0.455177,0.425163 1.066376,0.511749 1.46949,0.081322z" stroke-width="1.5" stroke="#000" fill="#000000"/>
  <path id="svg_2" d="m130.338242,417.596405c-0.081329,-0.167419 -0.165955,-0.271057 -0.234497,-0.300385l-0.012177,-0.005035c0.002899,-0.073822 0.004944,-0.123108 0.005585,-0.127991c0.001434,-0.014832 0.002686,-0.078857 0.002869,-0.138c0,-0.034363 0.001251,-0.137756 0.003113,-0.28064c0.018585,0.004883 0.043335,0.01474 0.07019,0.01474c0.104034,0.009857 0.21283,0.108429 0.287354,0.2659c0.044373,0.093597 0.059021,0.093597 0.026215,-0.004791c-0.03302,-0.093536 -0.131714,-0.23642 -0.210144,-0.295563c-0.052643,-0.044403 -0.128204,-0.059143 -0.172791,-0.049286c0.001434,-0.093506 0.002899,-0.196899 0.004333,-0.300354c0.006409,-0.408783 0.008453,-0.817566 0.008667,-1.625275c0,-1.260712 -0.005585,-1.610352 -0.040039,-2.442841c-0.014038,-0.339783 -0.029724,-0.63028 -0.04892,-0.891357c0.016724,-0.58606 0.016296,-1.497131 -0.001038,-2.299957c-0.014252,-0.654877 -0.019409,-0.694305 -0.069153,-0.571259c-0.042114,0.108429 -0.075989,0.256165 -0.119324,0.517242c-0.020447,0.123016 -0.048737,0.314941 -0.069366,0.462799c-0.053284,-0.221588 -0.108582,-0.369354 -0.167633,-0.448212c-0.059875,-0.083588 -0.206451,-0.039429 -0.258453,0.078857c-0.050781,0.108337 -0.096619,0.246338 -0.138123,0.408783c-0.02063,-0.152588 -0.050781,-0.354523 -0.072021,-0.48764c-0.043579,-0.260925 -0.077423,-0.403687 -0.119751,-0.512115c-0.049744,-0.128021 -0.054901,-0.083618 -0.069153,0.571259c-0.017548,0.807709 -0.017761,1.733612 -0.000214,2.324554c0.002075,0.064117 0.003113,0.113403 0.003723,0.147766c-0.070587,1.058868 -0.093506,2.245697 -0.078247,3.900543c0.003937,0.428497 0.010132,0.822449 0.018799,1.18692c-0.045013,-0.004974 -0.109009,0.01474 -0.155243,0.049286c-0.078644,0.064026 -0.177124,0.201782 -0.210358,0.300354c-0.032623,0.093597 -0.018158,0.098572 0.026428,0.005066c0.074524,-0.157715 0.183319,-0.256134 0.287354,-0.265991c0.019623,0 0.037994,-0.004974 0.05368,-0.009857c0.00473,0.187134 0.010101,0.369354 0.016296,0.546631l-0.000397,0c-0.068756,0.029572 -0.153198,0.132935 -0.234528,0.295563c-0.060883,0.123077 -0.150909,0.369354 -0.161438,0.438354c-0.010925,0.073792 -0.002045,0.058868 0.045227,-0.083923c0.08609,-0.260925 0.198181,-0.462891 0.3367,-0.600708l0.015472,-0.014923c0.029938,0.822632 0.075775,1.452911 0.140594,1.945343c0.039612,0.300629 0.102997,0.61084 0.13501,0.65506c0.00885,0.014923 0.034454,0.078857 0.056976,0.142792c0.022491,0.059143 0.066467,0.157715 0.097626,0.211914l0.000824,0c-0.00061,0.004791 -0.001221,0.004791 -0.001648,0.009857c-0.037994,0.236298 -0.062531,0.600861 -0.079071,1.177063c-0.007416,0.024506 -0.016724,0.063934 -0.026825,0.103363c-0.035706,0.142792 -0.04953,0.177277 -0.085876,0.177277c-0.037567,0.004944 -0.046661,-0.014771 -0.068939,-0.142914c-0.032837,-0.177155 -0.063171,-0.512146 -0.083405,-0.911072c-0.034058,-0.669708 -0.092499,-1.137634 -0.141418,-1.137634c-0.041687,0 -0.04953,0.201935 -0.019409,0.492432c0.04541,0.44342 0.079285,0.896423 0.093323,1.241119c0.007843,0.197144 0.019806,0.492584 0.026825,0.664795c0.007446,0.187286 0.023132,0.433563 0.038208,0.605927c0.035278,0.398773 0.069336,0.590851 0.120148,0.684479c0.034241,0.059143 0.042511,0.059143 0.082764,-0.004913c0.019409,-0.024658 0.035919,-0.059143 0.050568,-0.098572c0,0.197144 0,0.423706 0,0.689697c0,1.423218 -0.001434,1.881134 -0.006195,2.014069c-0.00885,0.256134 -0.0289,0.517212 -0.048492,0.635345c-0.019409,0.118286 -0.025391,0.251221 -0.017151,0.369354c0.004547,0.064209 0.013214,0.074066 0.042542,0.054352c0.055511,-0.044495 0.09494,-0.290771 0.11499,-0.719269c0.006378,-0.142639 0.007843,-0.418365 0.009888,-1.871277c0.002075,-1.575989 0.003113,-1.728638 0.011566,-1.9552c0.005371,-0.132935 0.012817,-0.275848 0.016937,-0.315277c0.007019,-0.069 0.007629,0.064056 0.007629,1.950256c-0.000214,2.083344 -0.001862,2.334412 -0.019409,2.733337c-0.003906,0.088715 -0.011353,0.207001 -0.01651,0.265869c-0.009094,0.098572 -0.013,0.354706 -0.006592,0.428497c0.010529,0.123199 0.062958,-0.069 0.091644,-0.339783c0.04892,-0.46286 0.054718,-0.842072 0.055115,-3.600189l0.000214,-1.615143l0.014862,0.014648l0.014648,0.019714l0.002472,2.112762c0.002899,2.378784 0.003326,2.413269 0.03717,2.876129c0.019409,0.261078 0.038818,0.403992 0.070404,0.517212c0.042114,0.147705 0.054901,-0.083649 0.026428,-0.492432c-0.030762,-0.438354 -0.03241,-0.605927 -0.030579,-3.220978c0.001038,-1.674408 0.001038,-1.674408 0.010132,-1.575989c0.018982,0.206726 0.022705,0.546783 0.022705,2.117706c0,1.950134 0.004761,2.132477 0.062561,2.47226c0.026825,0.157715 0.034454,0.177429 0.069153,0.18222c0.036743,0 0.039001,-0.004791 0.040253,-0.123077c0.001221,-0.088562 -0.003296,-0.152771 -0.020447,-0.28064c-0.022705,-0.162628 -0.038177,-0.37442 -0.048096,-0.640411c-0.003723,-0.103363 -0.006195,-0.773071 -0.007843,-2.156982c-0.002472,-1.930573 -0.003113,-2.019287 -0.013,-2.319641c-0.013641,-0.408783 -0.034485,-0.728851 -0.060699,-0.940765c-0.006805,-0.054077 -0.013611,-0.098297 -0.022491,-0.132935c0.010712,-0.009857 0.02124,-0.024506 0.031586,-0.04422c0.106293,-0.167419 0.162445,-0.310211 0.207672,-0.517059c0.095367,-0.438354 0.159973,-1.167206 0.194885,-2.196564c0.003082,-0.093628 0.006195,-0.182343 0.00885,-0.251099l0.027069,0.029327c0.138702,0.138 0.25061,0.334991 0.33667,0.596069c0.047272,0.142914 0.056152,0.162354 0.045227,0.088562c-0.010345,-0.068848 -0.100342,-0.315277 -0.161041,-0.433289zm-0.40686,-0.029572c-0.0159,0.413574 -0.059875,0.945435 -0.095398,1.152435c-0.034882,0.206848 -0.089783,0.36441 -0.15213,0.443268c-0.042542,0.049286 -0.279724,0.063934 -0.318939,0.019714c-0.129639,-0.152771 -0.202301,-0.448212 -0.255981,-1.049194c-0.050781,-0.566223 -0.07431,-1.334534 -0.07019,-2.28006c0.002686,-0.591187 0.014648,-0.965424 0.045837,-1.413483c0.028473,-0.41391 0.058411,-0.669861 0.093719,-0.797852c0.029724,-0.108429 0.120331,-0.118286 0.24234,-0.024841c0.053894,0.044556 0.09848,0.044556 0.152344,0c0.127594,-0.093445 0.212646,-0.083588 0.244232,0.034698c0.049347,0.182159 0.09433,0.669708 0.121582,1.324768c0.012177,0.290497 0.014465,0.413666 0.016327,0.866852c0.002258,0.620422 -0.006622,1.280426 -0.023743,1.723694zm-0.64328,-2.66452c-0.072662,-0.152588 -0.114136,1.329895 -0.058411,2.088318c0.026428,0.359497 0.049957,0.41864 0.079285,0.19696c0.027252,-0.202026 0.041901,-0.581238 0.041901,-1.068787c0,-0.654877 -0.024994,-1.137634 -0.062775,-1.216492zm0.440552,0.088715c-0.072662,-0.152588 -0.114166,1.329559 -0.058411,2.088135c0.026398,0.354614 0.049744,0.418671 0.079254,0.197144c0.027039,-0.202026 0.041901,-0.581238 0.041901,-1.073669c0,-0.65033 -0.024963,-1.132843 -0.062744,-1.211609zm-0.195282,2.915588c-0.001465,0.059143 -0.009094,0.147858 -0.016724,0.192078c-0.019409,0.123077 -0.033234,0.078857 -0.05368,-0.142792c-0.012787,-0.137848 -0.018372,-0.206848 -0.022308,-0.064056c-0.003693,0.133057 0.019012,0.398926 0.036346,0.477631c0.0159,0.078857 0.027466,0.078857 0.044586,-0.004791c0.017334,-0.088715 0.032196,-0.320068 0.032196,-0.467926c0,-0.137848 -0.016724,-0.133057 -0.020416,0.009857zm-0.021484,-0.467773c0.011139,-0.113495 0.013641,-0.354706 0.003113,-0.477783s-0.032013,-0.108429 -0.040466,0.034363c-0.009705,0.162598 -0.004547,0.290741 0.002472,0.423706c0.010742,0.103363 0.025391,0.123077 0.034882,0.019714z" stroke-width="1.5" stroke="#000" fill="#884D58"/>
 </g>
</svg>